/* XPM */
static char * KestrelBird_xpm[] = {
"28 31 172 2",
"  	c None",
". 	c #101010",
"+ 	c #101B25",
"@ 	c #10251B",
"# 	c #1B2530",
"$ 	c #1B253B",
"% 	c #1B3030",
"& 	c #251B25",
"* 	c #252525",
"= 	c #25301B",
"- 	c #253030",
"; 	c #25303B",
"> 	c #253B45",
", 	c #253B5B",
"' 	c #254565",
") 	c #302525",
"! 	c #303030",
"~ 	c #30303B",
"{ 	c #304550",
"] 	c #304565",
"^ 	c #3B1B05",
"/ 	c #3B3030",
"( 	c #3B303B",
"_ 	c #3B3050",
": 	c #3B4530",
"< 	c #3B4545",
"[ 	c #3B5050",
"} 	c #3B5065",
"| 	c #3B5B85",
"1 	c #453B30",
"2 	c #453B3B",
"3 	c #454545",
"4 	c #455050",
"5 	c #455B65",
"6 	c #455B7B",
"7 	c #502505",
"8 	c #505045",
"9 	c #505050",
"0 	c #505B65",
"a 	c #50657B",
"b 	c #507BA5",
"c 	c #5B5B50",
"d 	c #5B5B5B",
"e 	c #5B6565",
"f 	c #5B6570",
"g 	c #5B7090",
"h 	c #5B7B7B",
"i 	c #5B85B0",
"j 	c #653005",
"k 	c #656565",
"l 	c #657070",
"m 	c #65707B",
"n 	c #657B90",
"o 	c #657B9B",
"p 	c #6585B0",
"q 	c #6590BB",
"r 	c #707B70",
"s 	c #707B85",
"t 	c #7085A5",
"u 	c #7090A5",
"v 	c #709BC5",
"w 	c #7B7B7B",
"x 	c #7B857B",
"y 	c #7B8585",
"z 	c #7B8590",
"A 	c #7B9090",
"B 	c #7B90BB",
"C 	c #7B9BA5",
"D 	c #7B9BBB",
"E 	c #7B9BC5",
"F 	c #7BA5C5",
"G 	c #853B05",
"H 	c #85857B",
"I 	c #858585",
"J 	c #859085",
"K 	c #85909B",
"L 	c #8590B0",
"M 	c #859BBB",
"N 	c #859BC5",
"O 	c #85A5D0",
"P 	c #909B90",
"Q 	c #909BA5",
"R 	c #90A5BB",
"S 	c #90B0DB",
"T 	c #90BBDB",
"U 	c #9B5010",
"V 	c #9BA5C5",
"W 	c #9BBBD0",
"X 	c #9BBBDB",
"Y 	c #9BC5D0",
"Z 	c #A5907B",
"` 	c #A5B0A5",
" .	c #A5BBBB",
"..	c #A5BBD0",
"+.	c #A5BBDB",
"@.	c #A5C5DB",
"#.	c #B09070",
"$.	c #B09B85",
"%.	c #B0B0A5",
"&.	c #B0B0B0",
"*.	c #B0C5E5",
"=.	c #BBBBB0",
"-.	c #BBC5C5",
";.	c #BBC5D0",
">.	c #BBC5DB",
",.	c #BBD0DB",
"'.	c #BBD0E5",
").	c #C5C5BB",
"!.	c #C5C5D0",
"~.	c #C5C5DB",
"{.	c #C5DBD0",
"].	c #C5DBF0",
"^.	c #D03005",
"/.	c #D03B05",
"(.	c #D0D0D0",
"_.	c #D0DBDB",
":.	c #D0DBF0",
"<.	c #D0E5F0",
"[.	c #DB3B05",
"}.	c #DB4505",
"|.	c #DB5005",
"1.	c #DB9050",
"2.	c #DBDBD0",
"3.	c #DBE5DB",
"4.	c #DBE5F0",
"5.	c #DBF0F0",
"6.	c #DBF0FB",
"7.	c #E56510",
"8.	c #E5701B",
"9.	c #E59B50",
"0.	c #E59B5B",
"a.	c #E5DB85",
"b.	c #E5E5DB",
"c.	c #E5E5F0",
"d.	c #F03B05",
"e.	c #F04505",
"f.	c #F05B05",
"g.	c #F06510",
"h.	c #F0701B",
"i.	c #F07B3B",
"j.	c #F08530",
"k.	c #F09B45",
"l.	c #F0C53B",
"m.	c #F0D03B",
"n.	c #F0DB70",
"o.	c #F0F0E5",
"p.	c #F0FBF0",
"q.	c #F0FBFB",
"r.	c #FB4510",
"s.	c #FB5010",
"t.	c #FB5B1B",
"u.	c #FB6510",
"v.	c #FB651B",
"w.	c #FB7B25",
"x.	c #FB7B30",
"y.	c #FB851B",
"z.	c #FB853B",
"A.	c #FB8550",
"B.	c #FB9030",
"C.	c #FB905B",
"D.	c #FB9B50",
"E.	c #FB9B65",
"F.	c #FBA55B",
"G.	c #FBB07B",
"H.	c #FBBB85",
"I.	c #FBC59B",
"J.	c #FBD050",
"K.	c #FBDB5B",
"L.	c #FBDB65",
"M.	c #FBE57B",
"N.	c #FBF09B",
"O.	c #FBFBFB",
"                                                        ",
"                                  # >                   ",
"                                  . (.;.{               ",
"                                    6.. % ;.            ",
"                                    . 2.# @ n ..        ",
"                                      + @ _.+ 4 p       ",
"                                      / . # . e . ,.    ",
"                                      Q ,.D M M V 5     ",
"                                    ,.'.,.o Q } _.      ",
"                                  # Q @. .,.6.'.        ",
"                                ` j v.D.x.k.C           ",
"                              G 7.u.z.h.E.D.y.Q O.      ",
"  . . w.x.z.z.x.w.9.x.D.z.k.y.w.z.) D.u.[.. n.&.w.u.    ",
"  . . s.e.u.e.|.[.v.r.e.g.}.|.7 g.f.g.^ f.k.n.).o z m.  ",
"                        ;.2.'.. V |.Z Q 5.).P o._.V p.  ",
"                            k ,.(.=. ._._.M.=.          ",
"                            . '.,.Q +.<.Q               ",
"                            - 4 '.Q ,.].f               ",
"                            ... ,.M ,.X V               ",
"                          <.. . W :.$ S W               ",
"                        . y ~ ! W p . p                 ",
"                      . -.. 3.| h . #                   ",
"                    . . ) . . 5 V X                     ",
"                  . @ Q . =.! ]                         ",
"                l . . 3 y w '                           ",
"              ( @ 5.m & !                               ",
"            . 9 . . ! !                                 ",
"          w . V ! #                                     ",
"          . . _.P                                       ",
"        . . -                                           ",
"                                                        "};
